# xmcd
#
# Track frame offsets:
#	150
#	34835
#	50069
#	82223
#	104436
#	135324
#	160178
#	187375
#	216425
#	241443
#
# Disc length: 3770 seconds
#
# Revision: 1
# Processed by: cddbd v1.5.2PL0 Copyright (c) Steve Scherf et al.
# Submitted via: audiograbber 1.83.01
#
DISCID=970eb80a
DTITLE=Grateful Dead - 71-11-06 Harding Theatre, San Francisco CA
DYEAR=1900
DGENRE=
TTITLE0=Bertha
TTITLE1=Me and My Uncle
TTITLE2=Sugaree
TTITLE3=Jack Straw
TTITLE4=Tennessee Jed
TTITLE5=El Paso
TTITLE6=Loser
TTITLE7=Playing In The Band
TTITLE8=Cumberland Blues
TTITLE9=Black Peter
EXTD=
EXTT0=
EXTT1=
EXTT2=
EXTT3=
EXTT4=
EXTT5=
EXTT6=
EXTT7=
EXTT8=
EXTT9=
PLAYORDER=
